<svg width="280" height="400" xmlns="http://www.w3.org/2000/svg">
 <!-- Created with Method Draw - http://github.com/duopixel/Method-Draw/ -->
 <g>
  <title>background</title>
  <rect fill="none" id="canvas_background" height="402" width="282" y="-1" x="-1"/>
  <g display="none" overflow="visible" y="0" x="0" height="100%" width="100%" id="canvasGrid">
   <rect fill="url(#gridpattern)" stroke-width="0" y="0" x="0" height="100%" width="100%"/>
  </g>
 </g>
 <g>
  <title>Layer 1</title>
  <ellipse ry="9" rx="9" id="svg_3" cy="132.4375" cx="142.5" stroke-opacity="null" stroke-width="0" stroke="#000" fill="#ffffff"/>
  <ellipse ry="9" rx="9" id="svg_4" cy="278.4375" cx="124.5" stroke-opacity="null" stroke-width="0" stroke="#000" fill="#ffffff"/>
  <ellipse ry="9" rx="9" id="svg_5" cy="347.4375" cx="206.5" stroke-opacity="null" stroke-width="0" stroke="#000" fill="#ffffff"/>
  <ellipse ry="9" rx="9" id="svg_6" cy="248.4375" cx="229.5" stroke-opacity="null" stroke-width="0" stroke="#000" fill="#ffffff"/>
  <ellipse ry="9" rx="9" id="svg_7" cy="351.4375" cx="32.5" stroke-opacity="null" stroke-width="0" stroke="#000" fill="#ffffff"/>
  <ellipse ry="9" rx="9" id="svg_8" cy="39.4375" cx="116.5" stroke-opacity="null" stroke-width="0" stroke="#000" fill="#ffffff"/>
  <ellipse ry="9" rx="9" id="svg_9" cy="184.4375" cx="67.5" stroke-opacity="null" stroke-width="0" stroke="#000" fill="#ffffff"/>
  <ellipse ry="9" rx="9" id="svg_10" cy="90.4375" cx="47.5" stroke-opacity="null" stroke-width="0" stroke="#000" fill="#ffffff"/>
  <ellipse ry="9" rx="9" id="svg_11" cy="158.4375" cx="239.5" stroke-opacity="null" stroke-width="0" stroke="#000" fill="#ffffff"/>
  <ellipse ry="9" rx="9" id="svg_12" cy="51.4375" cx="232.5" stroke-opacity="null" stroke-width="0" stroke="#000" fill="#ffffff"/>
  <ellipse stroke="#ffffff" ry="14.5" rx="14.5" id="svg_13" cy="193.9375" cx="171" stroke-width="0" fill="#ffffff"/>
  <ellipse stroke="#000" ry="14.5" rx="14.5" id="svg_14" cy="100.9375" cx="193" stroke-opacity="null" stroke-width="0" fill="#ffffff"/>
  <ellipse stroke="#000" ry="14.5" rx="14.5" id="svg_15" cy="83.9375" cx="108" stroke-opacity="null" stroke-width="0" fill="#ffffff"/>
  <ellipse stroke="#000" ry="14.5" rx="14.5" id="svg_16" cy="27.9375" cx="173" stroke-opacity="null" stroke-width="0" fill="#ffffff"/>
  <ellipse stroke="#000" ry="14.5" rx="14.5" id="svg_17" cy="0.9375" cx="105" stroke-opacity="null" stroke-width="0" fill="#ffffff"/>
  <ellipse stroke="#000" ry="14.5" rx="14.5" id="svg_18" cy="193.9375" cx="272" stroke-opacity="null" stroke-width="0" fill="#ffffff"/>
  <ellipse stroke="#000" ry="14.5" rx="14.5" id="svg_19" cy="299.9375" cx="189" stroke-opacity="null" stroke-width="0" fill="#ffffff"/>
  <ellipse stroke="#000" ry="14.5" rx="14.5" id="svg_20" cy="262.9375" cx="48" stroke-opacity="null" stroke-width="0" fill="#ffffff"/>
  <ellipse stroke="#000" ry="14.5" rx="14.5" id="svg_21" cy="339.9375" cx="121" stroke-opacity="null" stroke-width="0" fill="#ffffff"/>
  <ellipse stroke="#000" ry="14.5" rx="14.5" id="svg_22" cy="157.9375" cx="2" stroke-opacity="null" stroke-width="0" fill="#ffffff"/>
  <ellipse stroke="#000" ry="14.5" rx="14.5" id="svg_23" cy="392.9375" cx="149" stroke-opacity="null" stroke-width="0" fill="#ffffff"/>
  <ellipse stroke="#000" ry="14.5" rx="14.5" id="svg_24" cy="344.9375" cx="258" stroke-opacity="null" stroke-width="0" fill="#ffffff"/>
  <ellipse stroke="#000" ry="4" rx="4" id="svg_25" cy="227.4375" cx="99.5" stroke-opacity="null" stroke-width="0" fill="#ffffff"/>
  <ellipse stroke="#000" ry="4" rx="4" id="svg_26" cy="249.4375" cx="166.5" stroke-opacity="null" stroke-width="0" fill="#ffffff"/>
  <ellipse stroke="#000" ry="4" rx="4" id="svg_27" cy="173.4375" cx="121.5" stroke-opacity="null" stroke-width="0" fill="#ffffff"/>
  <ellipse stroke="#000" ry="4" rx="4" id="svg_28" cy="214.4375" cx="201.5" stroke-opacity="null" stroke-width="0" fill="#ffffff"/>
  <ellipse stroke="#000" ry="4" rx="4" id="svg_29" cy="95.4375" cx="256.5" stroke-opacity="null" stroke-width="0" fill="#ffffff"/>
  <ellipse stroke="#000" ry="4" rx="4" id="svg_30" cy="293.4375" cx="258.5" stroke-opacity="null" stroke-width="0" fill="#ffffff"/>
  <ellipse stroke="#000" ry="4" rx="4" id="svg_32" cy="157.4375" cx="191.5" stroke-opacity="null" stroke-width="0" fill="#ffffff"/>
  <ellipse stroke="#000" ry="4" rx="4" id="svg_33" cy="77.4375" cx="157.5" stroke-opacity="null" stroke-width="0" fill="#ffffff"/>
  <ellipse stroke="#000" ry="4" rx="4" id="svg_34" cy="16.4375" cx="261.5" stroke-opacity="null" stroke-width="0" fill="#ffffff"/>
  <ellipse stroke="#000" ry="4" rx="4.000007" id="svg_35" cy="234.4375" cx="29.500008" stroke-opacity="null" stroke-width="0" fill="#ffffff"/>
  <ellipse stroke="#000" ry="4" rx="4" id="svg_36" cy="306.4375" cx="80.5" stroke-opacity="null" stroke-width="0" fill="#ffffff"/>
  <ellipse stroke="#000" ry="4" rx="4" id="svg_37" cy="133.4375" cx="58.5" stroke-opacity="null" stroke-width="0" fill="#ffffff"/>
  <ellipse stroke="#000" ry="4" rx="4" id="svg_38" cy="54.4375" cx="72.5" stroke-opacity="null" stroke-width="0" fill="#ffffff"/>
  <ellipse stroke="#000" ry="4" rx="4" id="svg_39" cy="373.4375" cx="67.5" stroke-opacity="null" stroke-width="0" fill="#ffffff"/>
  <ellipse stroke="#000" ry="4" rx="4" id="svg_40" cy="358.4375" cx="168.5" stroke-opacity="null" stroke-width="0" fill="#ffffff"/>
 </g>
</svg>